<?xml version="1.0" encoding="UTF-8"?>
<svg width="512px" height="512px" viewBox="0 0 512 512" version="1.1" xmlns="http://www.w3.org/2000/svg" xmlns:xlink="http://www.w3.org/1999/xlink">
    <title>app-logo</title>
    <g id="Page-1" stroke="none" stroke-width="1" fill="none" fill-rule="evenodd">
        <g id="app-logo">
            <rect id="Rectangle" stroke="#026F3C" fill="#03894A" x="0.5" y="0.5" width="511" height="511" rx="255.5"></rect>
            <path d="M256,50 C369.770658,50 462,142.229342 462,256 C462,369.770658 369.770658,462 256,462 C142.229342,462 50,369.770658 50,256 C50,142.229342 142.229342,50 256,50 Z M256.5,94 C166.753728,94 94,166.753728 94,256.5 C94,346.246272 166.753728,419 256.5,419 C346.246272,419 419,346.246272 419,256.5 C419,166.753728 346.246272,94 256.5,94 Z" id="Combined-Shape" fill="#FFFFFF"></path>
            <g id="Group-3" transform="translate(144.000000, 153.000000)" fill="#FFFFFF" fill-rule="nonzero">
                <path d="M219.753908,0 C220.06267,0 220.371432,0 220.678731,0.00243887243 C221.427955,0.00243887243 222.177179,0.00391020351 222.926402,0.00391020351 C222.939572,7.19724783 222.949816,14.3891141 222.955669,21.5824518 C222.957132,22.4314098 222.957132,23.2818391 222.958596,24.1322685 C222.958596,24.3853375 222.958596,24.3853375 222.958596,24.6442917 C222.961522,27.3809675 222.965912,30.1176433 222.970302,32.8543191 C222.976156,35.6630901 222.979082,38.4733325 222.980546,41.2835749 C222.982009,43.0153315 222.983472,44.7485595 222.989326,46.4803162 C222.992252,47.6706231 222.992252,48.8594586 222.992252,50.0497654 C222.992252,50.7339344 222.992252,51.4195746 222.995179,52.1052149 C222.998106,52.7349446 222.998106,53.363203 222.996642,53.9929327 C222.996642,54.2180463 222.996642,54.4446313 223,54.6712163 C223.027372,58.4481232 221.710377,61.7512614 219.088094,64.4849946 C216.489224,67.0730659 213.328437,68.2030482 209.721334,68.4060919 C209.365745,68.4281619 209.01162,68.4502318 208.656032,68.4723018 C208.377999,68.4884864 208.377999,68.4884864 208.09265,68.5061424 C207.101978,68.566467 206.109842,68.6312056 205.119169,68.6974154 C205.018199,68.7033008 204.91723,68.7106574 204.813333,68.7180141 C196.410906,69.2815339 188.050915,70.3364783 179.758238,71.8048667 C179.625075,71.828408 179.493376,71.8519493 179.357286,71.8769619 C165.452747,74.3429128 151.731124,78.2331121 127.078444,90.3436382 C126.945281,90.4260328 126.813581,90.506956 126.676029,90.5908218 C123.408418,92.6080168 120.314943,94.8782806 117.420481,97.4060274 C117.312195,97.5001926 117.205372,97.5928864 117.094159,97.6899943 C116.810274,97.9371779 116.529315,98.1858329 116.249819,98.4359591 C116.14446,98.528653 116.0391,98.6213469 115.930814,98.715512 C115.14208,99.4158656 114.387003,100.145646 113.64217,100.891611 C113.54998,100.984305 113.456327,101.076998 113.361211,101.172635 C112.828559,101.709671 112.332491,102.259949 111.859837,102.849952 C112.712957,104.880389 115.32207,106.896113 116.981483,108.293877 C117.110256,108.40717 117.239029,108.520462 117.370728,108.638169 C127.353549,117.366105 139.914754,122.988061 204.70212,137.259972 C204.997713,137.2791 205.294768,137.296756 205.591824,137.315883 C206.560546,137.377679 207.529269,137.436532 208.499456,137.4895 C213.038698,137.757282 216.748233,138.890207 219.894388,142.356663 C222.130352,145.055084 223,148.136052 222.979082,151.601036 C222.979082,151.837921 222.979082,152.073333 222.979082,152.308746 C222.980546,152.951718 222.979082,153.59469 222.976156,154.237662 C222.974692,154.933601 222.976156,155.628069 222.976156,156.324009 C222.976156,157.527558 222.974692,158.729635 222.971766,159.933184 C222.968839,161.672297 222.967376,163.411411 222.967376,165.150524 C222.965912,167.972537 222.962986,170.796021 222.958596,173.618034 C222.954206,176.357653 222.951279,179.098743 222.949816,181.839832 C222.949816,182.007564 222.949816,182.176767 222.949816,182.351856 C222.948352,183.199342 222.948352,184.0483 222.948352,184.897258 C222.943962,191.92875 222.935182,198.95877 222.926402,205.990261 C222.045479,205.993203 221.166019,205.996146 220.286559,205.996146 C219.989504,205.997617 219.690985,205.997617 219.39393,206 C216.778963,206.007917 214.16985,205.953477 211.560737,205.797516 C211.427574,205.79016 211.295875,205.782803 211.158322,205.773975 C199.396094,205.073621 187.708497,203.4581 176.246252,200.693469 C176.130649,200.665514 176.013582,200.637558 175.895053,200.609603 C164.355251,197.817017 153.207622,193.812053 142.589716,188.481421 C142.496063,188.43581 142.40241,188.388727 142.305831,188.340173 C139.597211,186.982135 136.976392,185.509332 134.395082,183.920295 C134.163876,183.779047 134.163876,183.779047 133.92828,183.634856 C131.884012,182.381282 129.896813,181.064441 127.95644,179.653435 C127.837911,179.568097 127.719381,179.48276 127.597925,179.39448 C126.054114,178.274797 124.554204,177.112446 123.087949,175.891241 C122.725044,175.591089 122.359212,175.296823 121.99338,175.001086 C121.273423,174.409611 120.590049,173.784295 119.911065,173.147208 C119.59645,172.852942 119.275981,172.571918 118.949659,172.293836 C118.143365,171.587598 117.394142,170.822505 116.640528,170.061827 C116.387372,169.805816 116.132753,169.551275 115.878134,169.296735 C115.044037,168.458076 114.228964,167.615004 113.469497,166.705721 C113.340724,166.557117 113.211951,166.408512 113.083178,166.261379 C111.990073,164.976907 110.95989,163.649766 109.957511,162.291728 C109.884344,162.19462 109.811178,162.096041 109.736548,161.99599 C102.247237,151.840863 98.6284282,139.290409 100.476611,126.720828 C101.6063,119.558388 104.472959,112.593107 108.640516,106.675413 C108.701976,106.587133 108.763435,106.498853 108.827822,106.40616 C109.505342,105.43361 110.188716,104.475773 110.96867,103.581204 C111.154513,103.297237 111.154513,103.297237 111.129636,102.955888 C110.91599,102.379126 110.563328,101.950969 110.18579,101.471315 C108.801482,99.6630493 107.575213,97.7665035 106.445524,95.7875632 C106.378211,95.6713281 106.310898,95.5550929 106.242122,95.4344438 C100.252722,84.8982419 98.3825892,72.5670162 101.506794,60.7890109 C103.463263,53.7339784 107.010369,47.3233889 111.567171,41.6425796 C111.735454,41.430708 111.735454,41.430708 111.908126,41.212951 C112.56955,40.3875342 113.258778,39.5959581 113.972882,38.817624 C114.168967,38.6028096 114.36359,38.3850526 114.552359,38.1628816 C115.32646,37.2506564 116.164946,36.4075837 117.009286,35.5630396 C117.263905,35.307028 117.517061,35.0524877 117.770217,34.7964761 C118.604313,33.9578174 119.445727,33.1397574 120.347137,32.3731939 C120.521273,32.2201754 120.695409,32.0656857 120.869545,31.9111959 C122.078253,30.8459522 123.311838,29.8233771 124.590787,28.8419993 C124.751753,28.7184075 124.751753,28.7184075 124.917109,28.5904017 C135.448678,20.5186794 147.342605,14.5818585 212.156311,0.17752727 C212.627503,0.153985973 213.098694,0.127502014 213.569886,0.101018054 C215.631714,-0.00491778295 217.690616,0 219.753908,0 Z" id="Path"></path>
                <path d="M0.0392536706,2.05302332 C6.27263759,2.04277444 12.5060215,2.0354538 18.7379388,2.03106142 C19.4756781,2.0295973 20.2119507,2.0295973 20.94969,2.0295973 C21.0963579,2.02813317 21.2430258,2.02813317 21.3940936,2.02813317 C23.7642462,2.02666904 26.1358655,2.02374079 28.5074847,2.01934841 C30.9421711,2.01495603 33.3783242,2.01202778 35.8130107,2.01202778 C37.3148895,2.01056365 38.8153017,2.00909952 40.3171806,2.00617127 C41.3482556,2.00324302 42.3793306,2.00324302 43.4104057,2.00324302 C44.0044105,2.00324302 44.5984153,2.00324302 45.1924201,2 C51.0400676,1.97835287 56.3641108,3.09987382 60.7597465,7.17746633 C60.8448138,7.25652916 60.9298812,7.335592 61.0178819,7.41611896 C62.2821588,8.59474085 63.3396341,9.82899955 64.279775,11.2770207 C64.4161761,11.4834626 64.4161761,11.4834626 64.5569773,11.6928327 C67.0459308,15.6694005 67.4052671,20.0339618 67.3994003,24.5976443 C67.3994003,25.1305864 67.400867,25.6620643 67.4023337,26.1950064 C67.4038004,27.115942 67.4038004,28.0368776 67.4038004,28.9592774 C67.4052671,30.2945608 67.4067337,31.6313084 67.4096671,32.9665918 C67.4140671,35.1408197 67.4184672,37.3165118 67.4199338,39.4907398 C67.4199338,39.6195829 67.4214005,39.7498902 67.4214005,39.8831257 C67.4228672,41.3296828 67.4243339,42.7762398 67.4258006,44.2213328 C67.4258006,44.7454901 67.4258006,45.2681833 67.4272672,45.7923406 C67.4272672,45.9856053 67.4272672,45.9856053 67.4272672,46.1832624 C67.4287339,48.3487056 67.433134,50.5126846 67.437534,52.6781278 C67.4404673,54.0075548 67.441934,55.3384458 67.441934,56.6678728 C67.441934,57.5829519 67.4434007,58.4965668 67.4448674,59.411646 C67.4463341,59.9358033 67.4478007,60.4614247 67.4463341,60.985582 C67.4316673,68.5258339 68.9056792,75.7747245 72.1998393,82.5799848 C72.2629065,82.7117562 72.3274403,82.8435276 72.3919742,82.9782273 C74.1534552,86.5829069 76.4092068,90.1026672 79.1738959,93.0309203 C79.4628316,93.339851 79.7415005,93.6531741 80.0187028,93.9738178 C80.5555071,94.588751 81.1187117,95.1714734 81.696583,95.7483392 C81.7992505,95.8508281 81.901918,95.953317 82.0075189,96.0587341 C82.6807244,96.7219834 83.3627299,97.341309 84.1092693,97.9211031 C84.5228727,98.2490674 84.9232759,98.5887448 85.3236792,98.9313504 C86.1772861,99.6502366 87.0748934,100.279811 88.0077009,100.890352 C88.2599696,101.055798 88.5122384,101.222708 88.7630404,101.389619 C89.7178481,102.022122 90.6829226,102.612165 91.6846641,103.162676 C91.7887983,103.23149 91.8929325,103.300304 92,103.370582 C92,103.467215 92,103.563847 92,103.663407 C91.6377304,103.891811 91.2739941,104.10411 90.8999911,104.31348 C88.30397,105.799568 85.7666161,107.549199 83.5841984,109.600441 C83.2747292,109.888874 82.96086,110.167058 82.6396574,110.443778 C82.0236524,110.979648 81.4399143,111.541873 80.8620429,112.118738 C80.7593754,112.221227 80.6567079,112.323716 80.5511071,112.429133 C79.8867017,113.101167 79.2662967,113.781986 78.6854919,114.527227 C78.3569559,114.941574 78.0152198,115.341281 77.6705504,115.743916 C76.9034775,116.654603 76.2288053,117.620926 75.5732,118.615068 C75.5159996,118.701452 75.4587991,118.787835 75.4001319,118.877147 C74.4541243,120.307598 73.5623837,121.752691 72.7865107,123.282704 C72.6897099,123.471576 72.6897099,123.471576 72.5914425,123.663376 C69.41315,129.937159 67.4800677,136.981072 67.4859344,144.039626 C67.4859344,144.219714 67.4859344,144.398337 67.4844677,144.584281 C67.4844677,145.079156 67.483001,145.572567 67.483001,146.067441 C67.483001,146.601848 67.4815343,147.137718 67.4815343,147.672124 C67.4800677,148.598916 67.478601,149.524244 67.4771343,150.451036 C67.4756676,151.916627 67.4727343,153.383682 67.4698009,154.850737 C67.4683342,155.352932 67.4668676,155.856592 67.4668676,156.358787 C67.4654009,156.547659 67.4654009,156.547659 67.4654009,156.73946 C67.4624675,158.168447 67.4595342,159.595971 67.4566008,161.024958 C67.4566008,161.155266 67.4566008,161.285573 67.4566008,161.420273 C67.4522008,163.531543 67.4492674,165.642814 67.4478007,167.75262 C67.4448674,169.926848 67.4404673,172.099612 67.4346006,174.272376 C67.4316673,175.610587 67.4287339,176.947335 67.4287339,178.284082 C67.4287339,179.20209 67.4272672,180.120097 67.4228672,181.038105 C67.4214005,181.566654 67.4214005,182.095204 67.4214005,182.622289 C67.4316673,189.184505 66.0177891,194.557849 61.3288177,199.344079 C57.7750556,202.877016 52.9130161,204.991215 47.8779086,205 C47.6901737,205 47.5024389,205 47.3073706,205 C47.1035023,205 46.899634,205 46.694299,205 C46.1354944,205 45.5766899,205 45.0178854,205 C44.4136138,204.997072 43.8093422,204.997072 43.2050707,204.997072 C42.1607955,204.997072 41.1150537,204.997072 40.0693119,204.997072 C38.5571663,204.995608 37.0464873,204.994143 35.5343417,204.994143 C33.0820552,204.994143 30.6283019,204.992679 28.1760154,204.992679 C25.7941294,204.991215 23.4122434,204.989751 21.0303574,204.988287 C20.8822228,204.988287 20.735555,204.988287 20.5844871,204.988287 C19.8482144,204.988287 19.1104751,204.988287 18.3742025,204.988287 C12.2625529,204.986823 6.15090327,204.983895 0.0392536706,204.980966 C0.0319202777,197.197669 0.027520242,189.415837 0.0245868849,181.63254 C0.0245868849,180.711604 0.0231202063,179.792133 0.0231202063,178.871197 C0.0231202063,178.688181 0.0231202063,178.503701 0.0231202063,178.314829 C0.0216535277,175.355829 0.0187201706,172.395365 0.017253492,169.434901 C0.0143201349,166.393911 0.0128534563,163.351456 0.0113867777,160.310465 C0.0113867777,158.436383 0.00992009918,156.562301 0.00698674204,154.688219 C0.00552006347,153.399787 0.00552006347,152.111356 0.00552006347,150.822924 C0.00552006347,150.082076 0.00552006347,149.341228 0.0040533849,148.598916 C-0.0120800794,140.584287 -0.0120800794,140.584287 0.653791991,137.164088 C0.700725706,136.913722 0.700725706,136.913722 0.749126098,136.6575 C1.51766567,132.738033 2.83914306,128.998654 4.73262509,125.478893 C4.81475909,125.323696 4.81475909,125.323696 4.89689309,125.16557 C6.08343606,122.91228 7.49438084,120.84054 9.1326608,118.890324 C9.19279462,118.818582 9.25146177,118.745375 9.31306227,118.670705 C11.0100094,116.607751 12.8726912,114.658998 14.9993751,113.033818 C15.2149768,112.862515 15.2149768,112.862515 15.4335119,112.68682 C22.1347663,107.360327 30.7925699,104.180244 39.3741062,104.240273 C39.6454418,104.240273 39.6454418,104.240273 39.9241107,104.241737 C40.3670476,104.243202 40.8099846,104.24613 41.2529215,104.249058 C41.2529215,103.765896 41.2529215,103.282735 41.2529215,102.784932 C41.1517207,102.78786 41.0519865,102.789324 40.9478523,102.792252 C29.9712299,103.007479 19.8746146,98.8317898 11.9706838,91.2798249 C10.8956084,90.2432233 9.90413373,89.1773392 8.98599295,87.9972532 C8.84079177,87.8157015 8.69412391,87.6341498 8.54892273,87.451134 C7.28464581,85.8610925 6.20077034,84.1846676 5.17262867,82.4335722 C5.1154282,82.3369398 5.05822774,82.2403075 4.99956059,82.1392827 C1.26393028,75.7395855 0.00845342061,68.342818 0.0216535277,61.0353623 C0.0216535277,60.7791402 0.0216535277,60.522918 0.0216535277,60.2666959 C0.0201868492,59.5697716 0.0216535277,58.8728474 0.0216535277,58.1759231 C0.0231202063,57.4218979 0.0231202063,56.6664086 0.0231202063,55.9123834 C0.0231202063,54.6078467 0.0231202063,53.3033099 0.0231202063,51.9987731 C0.0245868849,50.1129781 0.0260535634,48.2271831 0.0260535634,46.3399239 C0.0260535634,43.2798994 0.027520242,40.2198748 0.027520242,37.1583862 C0.0289869206,34.1862092 0.0304535992,31.2154964 0.0319202777,28.2433195 C0.0319202777,28.0603036 0.0319202777,27.8772878 0.0319202777,27.6884155 C0.0319202777,26.7674799 0.0319202777,25.8465443 0.0319202777,24.9270728 C0.0333869563,17.3019016 0.0363203134,9.67819451 0.0392536706,2.05302332 Z" id="Path"></path>
                <path d="M111.275674,103 C111.755722,103.083864 111.97672,103.213338 112.300167,103.576747 C112.380663,103.666496 112.461159,103.756245 112.544582,103.847465 C112.671912,103.993123 112.671912,103.993123 112.803633,104.140252 C112.986578,104.341819 113.169523,104.543387 113.352468,104.744954 C113.444673,104.846473 113.538341,104.949463 113.633472,105.053925 C114.687237,106.198591 115.795153,107.293234 116.983565,108.296655 C117.112359,108.409945 117.241152,108.523235 117.374337,108.640938 C127.358756,117.368649 139.920508,122.990461 204.718249,137.262005 C205.015352,137.27966 205.312455,137.298787 205.609558,137.317914 C206.578436,137.378237 207.547314,137.437088 208.516192,137.491526 C213.057625,137.759302 216.766291,138.890726 219.914413,142.357093 C222.150735,145.056916 223.020091,148.137804 222.998138,151.602699 C222.998138,151.838106 222.998138,152.074984 223,152.310391 C223,152.953346 222.998138,153.596301 222.996674,154.239257 C222.99521,154.933707 222.99521,155.629629 222.99521,156.32555 C222.99521,157.527597 222.993747,158.731115 222.992283,159.934633 C222.987893,161.673701 222.986429,163.41277 222.986429,165.151838 C222.984965,167.973779 222.982038,170.795719 222.979111,173.617659 C222.974721,176.358678 222.971793,179.099698 222.968866,181.839246 C222.968866,182.008444 222.968866,182.177643 222.968866,182.351256 C222.968866,183.200192 222.967403,184.049128 222.967403,184.896593 C222.963012,191.927903 222.955694,198.959213 222.945449,205.990523 C222.065849,205.993466 221.186248,205.994937 220.306647,205.996408 C220.008081,205.996408 219.710977,205.99788 219.412411,206 C216.798489,206.006707 214.188958,205.95227 211.577964,205.797784 C211.446243,205.790427 211.313059,205.7816 211.176948,205.774243 C199.411373,205.073908 187.721904,203.458428 176.257824,200.693868 C176.142202,200.665913 176.026581,200.637959 175.906569,200.610004 C164.366383,197.81749 153.215505,193.811158 142.595899,188.482134 C142.502231,188.435053 142.410027,188.387972 142.313432,188.34089 C139.604379,186.982887 136.983139,185.510122 134.399952,183.921125 C134.246278,183.826963 134.092604,183.7328 133.93454,183.635695 C131.88848,182.382153 129.902427,181.065345 127.96028,179.654375 C127.841731,179.56904 127.723183,179.483705 127.601707,179.395428 C126.057649,178.275773 124.557498,177.113452 123.091009,175.892278 C122.72951,175.592135 122.362156,175.297876 121.996265,175.002146 C121.276193,174.409215 120.594173,173.783915 119.913616,173.146845 C119.600414,172.854058 119.278431,172.573041 118.952056,172.293495 C118.147097,171.587275 117.397753,170.823673 116.642556,170.061544 C116.389359,169.80701 116.1347,169.551005 115.881503,169.296471 C115.045809,168.459305 114.230605,167.614783 113.471017,166.706995 C113.342223,166.558394 113.214893,166.409794 113.0861,166.261193 C111.991356,164.976754 110.961008,163.649648 109.958468,162.293116 C109.88529,162.19601 109.813576,162.097434 109.738934,161.997386 C102.248424,151.84252 98.6290353,139.290918 100.47605,126.72166 C101.60592,119.562347 104.470111,112.589889 108.641262,106.678233 C108.702732,106.591427 108.762738,106.503149 108.825671,106.4134 C109.248641,105.811641 109.674537,105.214296 110.104824,104.618423 C110.163367,104.537501 110.221909,104.455109 110.281915,104.371245 C110.61268,103.913673 110.943445,103.456101 111.275674,103 Z" id="Path"></path>
            </g>
        </g>
    </g>
</svg>